<?xml version="1.0" encoding="UTF-8" standalone="no"?>
<!-- Created with Inkscape (http://www.inkscape.org/) -->

<svg
   width="122mm"
   height="148.09322mm"
   viewBox="0 0 122 148.09322"
   version="1.1"
   id="svg2669"
   xml:space="preserve"
   inkscape:version="1.2.2 (732a01da63, 2022-12-09)"
   sodipodi:docname="rocks.svg"
   xmlns:inkscape="http://www.inkscape.org/namespaces/inkscape"
   xmlns:sodipodi="http://sodipodi.sourceforge.net/DTD/sodipodi-0.dtd"
   xmlns="http://www.w3.org/2000/svg"
   xmlns:svg="http://www.w3.org/2000/svg"><sodipodi:namedview
     id="namedview2671"
     pagecolor="#ffffff"
     bordercolor="#111111"
     borderopacity="1"
     inkscape:showpageshadow="0"
     inkscape:pageopacity="0"
     inkscape:pagecheckerboard="1"
     inkscape:deskcolor="#d1d1d1"
     inkscape:document-units="mm"
     showgrid="false"
     inkscape:zoom="0.4204826"
     inkscape:cx="-221.17443"
     inkscape:cy="260.41506"
     inkscape:window-width="1436"
     inkscape:window-height="875"
     inkscape:window-x="322"
     inkscape:window-y="515"
     inkscape:window-maximized="0"
     inkscape:current-layer="layer1" /><defs
     id="defs2666" /><g
     inkscape:label="Layer 1"
     inkscape:groupmode="layer"
     id="layer1"
     transform="translate(-39.677971,-97.094269)"><ellipse
       style="opacity:1;fill:#808080;fill-opacity:1;stroke:#000000;stroke-width:2;stroke-dasharray:none;stroke-opacity:1"
       id="path8271"
       cx="100.67797"
       cy="204.18748"
       rx="60"
       ry="40" /><ellipse
       style="opacity:1;fill:#ececec;fill-opacity:1;stroke:#000000;stroke-width:2;stroke-dasharray:none;stroke-opacity:1"
       id="path8273"
       cx="105.08263"
       cy="151.01695"
       rx="40"
       ry="25" /><ellipse
       style="opacity:1;fill:#cccccc;fill-opacity:1;stroke:#000000;stroke-width:2;stroke-dasharray:none;stroke-opacity:1"
       id="path8275"
       cx="96.902534"
       cy="116.09427"
       rx="30"
       ry="18" /><path
       style="opacity:1;fill:#ffffff;stroke:#000000;stroke-width:2;stroke-dasharray:none;stroke-opacity:1"
       id="path8283"
       d="m 62.032202,207.19475 c 1.818582,1.84001 4.04949,3.20415 6.193467,4.6277 2.33113,1.441 4.693491,2.84772 7.152431,4.06193 1.496428,0.73894 3.351847,0.93889 4.97227,1.21777 2.927752,0.55934 5.891985,0.87082 8.865399,1.03695 2.004253,0.10442 4.011977,0.0818 6.018143,0.0872 0,0 -3.100723,-2.25367 -3.100723,-2.25367 v 0 c -2.002841,-0.002 -4.006247,-0.0149 -6.007431,-0.10486 -2.947823,-0.16316 -5.885598,-0.4803 -8.787413,-1.0363 -1.352531,-0.25012 -2.058665,-0.33964 -3.377867,-0.74889 -0.525817,-0.16312 -1.80776,-1.05474 -1.550953,-0.56777 0.347049,0.65808 1.283415,0.75778 1.88326,1.1979 0.793054,0.58188 -3.307136,-2.05937 -2.535341,-1.50988 -2.099903,-1.38282 -4.305485,-2.70287 -6.081575,-4.4988 0,0 -3.643667,-1.50925 -3.643667,-1.50925 z" /><path
       style="opacity:1;fill:#ffffff;stroke:#000000;stroke-width:2;stroke-dasharray:none;stroke-opacity:1"
       id="path8285"
       d="m 83.04518,157.95778 c 3.141244,1.19585 6.424443,1.96942 9.717751,2.61128 3.479173,0.54411 6.896989,1.41218 10.382929,1.90748 0,0 -3.05568,-2.28781 -3.05568,-2.28781 v 0 c -3.448793,-0.50717 -6.849533,-1.29717 -10.289333,-1.86158 -3.36519,-0.67808 -6.691043,-1.54173 -9.900669,-2.77423 0,0 3.145002,2.40486 3.145002,2.40486 z" /><path
       style="opacity:1;fill:#ffffff;stroke:#000000;stroke-width:2;stroke-dasharray:none;stroke-opacity:1"
       id="path8293"
       d="m 83.122295,120.82236 c 1.983235,0.39727 3.952018,0.86038 5.93575,1.25708 1.562216,0.29209 3.153921,0.34268 4.737185,0.41688 0,0 -3.088894,-2.26758 -3.088894,-2.26758 v 0 c -1.582037,-0.0821 -3.169219,-0.1675 -4.726393,-0.48082 -2.007634,-0.40978 -4.008821,-0.85493 -6.006343,-1.30958 0,0 3.148695,2.38402 3.148695,2.38402 z" /></g></svg>
